<svg fill="rgb(242, 159, 5)" viewBox="-1 0 511 511.99993" x="0px" y="0px" xmlns="http://www.w3.org/2000/svg"><path d="m509.09375 117.261719c-2.179688-3.527344-6.808594-4.621094-10.335938-2.4375-3.617187 1.667969-24.78125 19.210937-58.199218 17.699219-22.402344-1.015626-44.175782-8.484376-59.441406-15.121094 3.324218-11.09375 8.929687-17.136719 13.984374-20.421875 21.761719 16.480469 53.75 18.296875 87.984376-11.320313 3.816406-3.304687 3.328124-9.300781-.859376-11.996094-.839843-.539062-12.503906-7.90625-28.261718-11.910156 4.105468-8.128906 7.46875-18.199218 9.480468-30.703125.789063-4.996093-3.425781-9.269531-8.367187-8.640625-.652344.078125-15.296875 2.023438-30.585937 9.691406-3.34375-13.875-9.378907-24.808593-11.429688-28.292968-2.550781-4.492188-8.746094-5.128906-12.164062-1.28125-16.507813 18.660156-24.476563 37.5-23.675782 56.011718.5 11.503907 4.40625 20.703126 8.109375 26.949219-6.988281 5.042969-13.722656 13.101563-17.898437 25.410157-6.042969-3.136719-10.90625-6.164063-21.300782-11.441407-82.964843-42.105469-163.1875-57.847656-242.4375-9.171875 6.910157-37.511718-18.769531-73.796875-56.964843-79.632812-4.101563-.625-7.929688 2.1875-8.554688 6.285156-.625 4.101562 2.1875 7.929688 6.285157 8.558594 29.089843 4.445312 49.136718 31.726562 44.691406 60.816406-3.417969 22.371094-24.453125 37.929688-46.9375 34.492188-17.144532-2.617188-28.960938-18.695313-26.339844-35.839844 3.023438-19.792969 28.214844-26.726563 38.371094-12.90625 4.113281 5.597656 4.859375 13.984375.242187 19.25-3.808593-7.179688-12.910156-9.011719-19.175781-4.40625-9.4375 6.9375-5.464844 21.667968 5.675781 23.367187 14.964844 2.285157 29-8.027343 31.285157-22.992187 2.703124-17.683594-9.484376-34.265625-27.167969-36.96875-21.078125-3.222656-40.851563 11.304687-44.074219 32.386718-3.996094 26.152344 14.894531 52.472657 45.4375 53.566407-51.425781 48.542969-47.121094 125.464843-23.265625 192.0625 20.972656 58.550781 21.671875 135.109375-9.691406 171.246093-4.238281 4.882813-.699219 12.429688 5.664062 12.429688 2.101563 0 4.191407-.875 5.675781-2.585938 19.738282-22.746093 26.296876-55.285156 27.871094-82.488281.460938.214844 10.617188 2.199219 16.429688 10.191407-12.136719 16.546874-15.359375 43.1875 9.808594 72.289062 3.253906 3.75 9.265624 3.378906 11.992187-.863281.429687-.667969 5.988281-9.457031 9.359375-21.59375 9.800781 4.628906 22.371094 7.097656 24.910156 7.097656 4.542969 0 8.015625-4.003906 7.445313-8.457031-.070313-.511719-1.539063-11.613282-7.207031-23.605469 12.242187-3.222656 21.164062-8.71875 21.832031-9.140625 4.242187-2.660156 4.746093-8.664062.992187-11.992188-26.367187-23.34375-50.964844-22.855468-67.753906-13.425781-10.242188-13.164062-26.636719-15.527343-27.390625-15.835937-.21875-72.105469-24.148437-90.285156-30.707031-150.511719 6.210937 5.902344 12.773437 9.660156 19.007812 11.914063-11.996094 36.683593 9.769532 70.089843 42.515625 92.105468 4.109375 2.773438 9.828125.867188 11.351563-3.960937.378906-1.191407 5.574218-18.109375 4.824218-38.492188 13.914063 3.253907 30.339844 3.703125 40.15625 2.441407 4.972657-.636719 7.9375-5.882813 5.925782-10.460938-6.457032-14.726562-13.855469-25.808594-21.515625-34.148438 18.03125-9.476562 30.082031-22.34375 30.863281-23.191406 3.40625-3.703125 2.28125-9.632812-2.191406-11.824218-11.402344-5.636719-22.625-9.5-33.335938-11.472657-4.074218-.75-7.988281 1.953125-8.738281 6.035157-.75 4.074218 1.941406 7.988281 6.027344 8.742187 6.203125 1.140625 12.660156 3.03125 19.277343 5.644531-12.328124 10.265625-27.921874 19.210938-44.003906 20.84375-.011718.007813-.011718.007813-.023437 0-11.097657 1.210938-21.875-1.351562-31.8125-7.757812 3.40625-4.421875 7.480469-8.3125 12.351562-11.503906h.011719c5.175781-3.382813 10.980469-5.804688 17.320312-7.1875 4.050782-.882813 6.617188-4.886719 5.734376-8.929688-.882813-4.054688-4.886719-6.628906-8.929688-5.746094-16.066406 3.503906-29.53125 12.191406-39.171875 25.246094-8.136719-2.429688-18.425781-8.835938-26.765625-24.765625.867188-29.492187 9.347656-57.671875 28.285156-79.828125-3.875 55.523438 70.257813 86.429688 112.992188 43.695312 2.929687-2.933593 2.929687-7.6875 0-10.617187-2.933594-2.933594-7.6875-2.933594-10.617188 0-20.808594 20.804687-54.664062 20.804687-75.472656 0-16.058594-16.0625-16.058594-42.195313 0-58.253906 12.261719-12.261719 32.214844-12.261719 44.480469 0 9.222656 9.226562 9.222656 24.234375 0 33.460937-9.695313 9.691406-25.683594 4.378906-27.988281-6.105468 8.035156 1.191406 14.917968-5.050782 14.917968-12.84375 0-7.179688-5.820312-13-13-13-10.480468 0-17.234375 12.695312-17.234375 23.152343 0 7.332031 2.855469 14.226563 8.042969 19.414063 6.128906 6.125 14.273438 9.5 22.9375 9.5 30.511719 0 46.519531-40.621094 22.941406-64.195313-6.8125-6.816406-15.375-11.238281-24.667968-12.882812 31.691406-20.574219 54.09375-25.902344 83.175781-30.117188 20.800781 12.203125 28.117187 26.5 30.378906 37.339844-17.5 11.191406-29.421875 27.738281-34.578125 48.039063-5.9375 23.4375-2.613281 50.136718 9.878906 79.355468 1.972656 4.605469 7.8125 6.03125 11.695313 2.835938 1.199219-.992188 18.621093-15.597656 31.453125-37.921875 9.851562 10.492187 23.394531 20.753906 41.816406 30.074219 4.410156 2.246093 9.847656-.367188 10.769531-5.335938.039063-.242188 1.070313-5.898438 1.5625-14.617188.230469-4.132812-2.933593-7.679687-7.078125-7.917968-4.132812-.210938-7.679687 2.933594-7.917968 7.078125-.039063.75-.089844 1.480469-.140626 2.179687-14.265624-8.347656-24.535156-17.246094-31.863281-26.148437 2.992188-7.464844 5.195313-15.496094 6.085938-23.945313 6.789062 3.894532 14.355469 6.917969 22.59375 9.039063.851562 3.335937 1.550781 6.820312 2.101562 10.453125.621094 4.105468 4.445313 6.917968 8.550781 6.296875 4.105469-.632813 6.917969-4.453125 6.285157-8.558594-.269531-1.792969-.578125-3.542969-.917969-5.277344 17.171875 1.902344 36.257812.261719 49.542969-3.003906 4.832031-1.242187 7.160156-6.796875 4.582031-11.121094-6.894531-11.570312-14.433594-21.644531-22.421875-29.941406-2.875-2.984375-7.628906-3.074219-10.621094-.199219-2.984375 2.882813-3.074219 7.628906-.203125 10.621094 5.027344 5.203125 9.871094 11.242188 14.488282 18.007812-25.273438 3.554688-54.351563 1.1875-74.191407-14.523437v-.011719c-6.027343-4.644531-11.785156-11.398437-16.078125-19.601562 0-.007813 0-.007813 0-.007813-.8125-1.441406-1.921875-3.894531-2.613281-5.515625.605469-.152344 10.160156-4.15625 23.496094-4.15625 11.484375 0 22.625 2.941406 33.125 8.738282 3.636719 2.011718 8.199219.691406 10.203125-2.933594 2-3.632813.691406-8.199219-2.945313-10.210938-20.03125-11.0625-41.929687-13.277344-62.625-7.585937-2.375-9.199219-7.839843-20.984375-20.113281-32.253907 25.316406 1.292969 68.078125 8.734376 124.933594 37.589844 14.578125 7.402344 54.183594 32.574219 100.539062 34.675782 38.558594 1.757812 62.882813-18.097657 66.777344-19.929688 3.527344-2.179688 4.617188-6.804688 2.4375-10.332031zm-82.359375-69.296875c6.003906-3.578125 12.800781-6.320313 19.542969-8.257813-2.132813 7.9375-4.945313 14.375-8.148438 19.59375-3.925781-.203125-7.960937-.082031-12.011718.488281.578124-3.792968.789062-7.738281.617187-11.824218zm-5.863281 28.402344c13.898437-4.667969 29.988281-1.089844 43.496094 4.894531-16.09375 11.265625-34.605469 16.691406-52.296876 8.511719 8.417969-12.054688 7.726563-11.320313 8.800782-13.40625zm-15.75-55.128907c9.125 20.824219 10.523437 43.378907-5.503906 58.753907-3.234376-4.925782-5.460938-9.875-6.617188-15.949219-2.0625-10.851563-.378906-25.394531 12.121094-42.804688zm-302.285156 450.105469c.089843-2.414062.03125-4.875-.21875-7.359375 2.457031.285156 4.777343.367187 7.226562.3125 2.421875 4.191406 4.144531 8.527344 5.347656 12.300781-4.636718-1.402344-8.761718-3.152344-12.355468-5.253906zm26.277343-26.378906c-14.671875 5.664062-30.445312 6.992187-42.011719-3.652344-.023437-.121094-.042968-.230469-.070312-.351562 13.539062-8.394532 28.804688-4.800782 42.082031 4.003906zm-49.242187 2.992187c10.738281 11.632813 9.375 27.691407 3.445312 42.367188-8.726562-13.476563-12.148437-28.960938-3.445312-42.367188zm29.984375-161.164062c6.15625 5.789062 12.203125 13.546875 17.769531 23.90625-9.796875-.027344-19.9375-1.257813-29.394531-4.09375-1.148438-5.476563-2.871094-10.980469-5.355469-16.296875 5.90625-.492188 11.605469-1.753906 16.980469-3.515625zm-55.210938-5.433594c6.832031 4.101563 13.972657 6.753906 20.453125 7.976563 10.96875 15.929687 11.621094 37.875 8.289063 56.742187-20.339844-16.320313-35.074219-39.316406-28.742188-64.71875zm182.898438-125.214844c-.820313 21.21875-6.640625 42.289063-31.925781 68.492188-11.800782-33.402344-11.582032-69.957031 14.90625-92.667969 4.085937 9 9.792968 17.3125 17.019531 24.175781zm0 0"/></svg>