<?xml version="1.0" encoding="iso-8859-1"?>
<!-- Generator: Adobe Illustrator 19.0.0, SVG Export Plug-In . SVG Version: 6.00 Build 0)  -->
<svg fill="rgb(242, 159, 5)" version="1.1" id="Capa_1" xmlns="http://www.w3.org/2000/svg" xmlns:xlink="http://www.w3.org/1999/xlink" x="0px" y="0px"
	 viewBox="0 0 512 512" style="enable-background:new 0 0 512 512;" xml:space="preserve">
<g>
	<g>
		<path d="M504.5,300.5h-171v-25.242c0-18.11-6.503-35.242-18.319-48.33c3.715-2.6,7.28-5.444,10.658-8.545
			c13.005-11.941,22.525-26.758,27.84-43.219c6.273,1.049,12.777-0.136,18.492-3.527c8.436-5.004,13.472-13.84,13.472-23.637
			c0-9.365-4.701-17.997-12.576-23.088c-1.745-1.128-3.589-2.03-5.489-2.728c1.544-4.37,1.781-9.211,0.381-13.973
			c-9.141-31.055-26.507-55.536-51.619-72.766l-2.073-1.423c-2.191-7.035-7.026-12.818-13.618-16.149
			C288.78,11.875,271.264,8,256.021,8c-57.323,0-99.663,44.9-116.195,89.399c-2.787,7.502-2.459,15.63,0.924,22.887
			c0.4,0.857,0.84,1.687,1.311,2.495c-1.786,0.74-3.518,1.652-5.166,2.747c-8.388,5.573-13.396,14.909-13.396,24.972
			c0,10.79,5.574,20.476,14.911,25.909c6.696,3.896,14.331,5.039,21.567,3.412c7.347,19.198,20.36,35.498,36.882,47.059
			c-11.843,13.093-18.36,30.246-18.36,48.377V300.5h-25.598c-3.218-20.195-19.207-36.185-39.402-39.402V255.5h2.5
			c4.142,0,7.5-3.357,7.5-7.5s-3.358-7.5-7.5-7.5h-9.994c-0.002,0-0.004,0-0.006,0c-0.002,0-0.004,0-0.006,0H96
			c-4.142,0-7.5,3.357-7.5,7.5s3.358,7.5,7.5,7.5h2.5v5.598c-20.196,3.218-36.184,19.207-39.402,39.402H7.5
			c-4.142,0-7.5,3.357-7.5,7.5s3.358,7.5,7.5,7.5h21v181c0,4.143,3.358,7.5,7.5,7.5s7.5-3.357,7.5-7.5v-181h425v181
			c0,4.143,3.357,7.5,7.5,7.5s7.5-3.357,7.5-7.5v-181h21c4.143,0,7.5-3.357,7.5-7.5S508.643,300.5,504.5,300.5z M74.383,300.5
			c3.396-14.315,16.278-25,31.617-25s28.221,10.685,31.617,25H74.383z M153.888,102.623C168.612,62.99,205.903,23,256.021,23
			c14.783,0,29.988,4.282,37.86,8.26c3.368,1.703,5.716,4.887,6.439,8.735c0.014,0.073,0.036,0.142,0.052,0.214
			c0.036,0.166,0.072,0.333,0.119,0.496c0.035,0.121,0.08,0.238,0.121,0.356c0.039,0.112,0.074,0.226,0.118,0.337
			c0.05,0.125,0.108,0.244,0.164,0.364c0.047,0.102,0.091,0.204,0.142,0.304c0.059,0.113,0.125,0.221,0.19,0.331
			c0.06,0.103,0.117,0.207,0.182,0.306c0.063,0.097,0.133,0.189,0.201,0.283c0.076,0.106,0.15,0.213,0.233,0.316
			c0.066,0.082,0.138,0.158,0.207,0.237c0.092,0.105,0.183,0.213,0.282,0.313c0.072,0.073,0.149,0.14,0.224,0.21
			c0.104,0.098,0.206,0.198,0.317,0.291c0.083,0.07,0.173,0.132,0.259,0.198c0.105,0.081,0.205,0.166,0.316,0.241l4.403,3.021
			c22.194,15.228,37.575,36.973,45.715,64.631c1.156,3.928-0.994,8.081-5.023,9.787c-25.701-0.625-48.278-18.301-55.162-42.908
			c2.331-3.391,5.531-8.549,6.58-12.678c1.019-4.015-1.41-8.096-5.425-9.114c-4.011-1.02-8.096,1.409-9.114,5.425
			c-0.463,1.822-3.397,6.578-5.867,9.925c-30.827,31.507-71.939,49.004-115.96,49.362c-0.004-0.001-0.009-0.003-0.013-0.005
			c-4.154-1.481-7.434-4.426-9.236-8.292C152.672,110.356,152.509,106.334,153.888,102.623z M171.795,167.961
			c-0.645-2.199-2.259-3.983-4.384-4.843c-2.125-0.859-4.525-0.7-6.519,0.432c-4.673,2.656-10.258,2.616-14.937-0.105
			c-4.668-2.717-7.455-7.556-7.455-12.944c0-5.102,2.441-9.649,6.697-12.478c4.027-2.676,8.829-3.266,13.303-1.669v0.595
			c0,4.143,3.358,7.5,7.5,7.5c4.142,0,7.5-3.357,7.5-7.5v-0.058c40.418-2.486,78.147-18.297,108.252-45.354
			c4.66,11.297,12.112,21.399,21.686,29.192c10.107,8.228,22.265,13.585,35.063,15.606v0.615c0,4.143,3.357,7.5,7.5,7.5
			s7.5-3.357,7.5-7.5v-0.521c3.806-1.542,7.938-1.17,11.422,1.08c3.636,2.351,5.721,6.175,5.721,10.492
			c0,4.447-2.29,8.461-6.125,10.736c-3.842,2.279-8.458,2.37-12.353,0.244c-2.055-1.122-4.518-1.221-6.655-0.265
			c-2.139,0.955-3.707,2.855-4.241,5.136c-7.963,33.978-36.86,60.354-71.908,65.633c-1.552,0.233-2.991,0.948-4.115,2.043
			L256,240.531l-9.248-9.007c-1.124-1.094-2.562-1.809-4.113-2.043C209.07,224.413,181.262,200.265,171.795,167.961z M293.5,241.11
			c0,1.224-0.5,2.385-1.408,3.27l-16.07,15.651L266.749,251l7.267-7.077c6.459-1.129,12.741-2.869,18.793-5.163
			C293.249,239.471,293.5,240.272,293.5,241.11z M265.272,270.5l-0.552,0.538c-2.33,2.269-5.416,3.518-8.692,3.518
			c-0.006,0-0.012,0-0.018,0c-0.186-0.008-0.333,0.006-0.498,0.016c-3.023-0.127-6.07-1.427-8.232-3.532l-0.553-0.539L256,261.47
			L265.272,270.5z M245.25,251l-9.272,9.031l-16.07-15.651c-0.908-0.885-1.408-2.045-1.408-3.27c0-0.848,0.255-1.659,0.705-2.376
			c6.02,2.295,12.298,4.047,18.774,5.184L245.25,251z M318.502,300.5h-15v-10.241c0-4.143-3.358-7.5-7.5-7.5
			c-4.142,0-7.5,3.357-7.5,7.5V300.5h-65v-10.241c0-4.143-3.358-7.5-7.5-7.5c-4.142,0-7.5,3.357-7.5,7.5V300.5h-15v-25.242H193.5
			c0-11.94,3.538-23.317,10.07-32.746c0.339,4.775,2.381,9.213,5.873,12.614l27.374,26.66c5.09,4.954,12.082,7.796,19.184,7.796
			c0.245,0,0.487-0.012,0.727-0.035c6.948-0.172,13.478-2.912,18.458-7.763l27.372-26.658c3.492-3.4,5.535-7.838,5.874-12.613
			c6.532,9.428,10.07,20.805,10.07,32.745V300.5z"/>
	</g>
</g>
<g>
	<g>
		<path d="M446,360.5c-12.406,0-22.5-10.094-22.5-22.5c0-4.143-3.357-7.5-7.5-7.5H96c-4.142,0-7.5,3.357-7.5,7.5
			c0,12.406-10.093,22.5-22.5,22.5c-4.142,0-7.5,3.357-7.5,7.5v68.5c0,4.143,3.358,7.5,7.5,7.5c12.407,0,22.5,10.094,22.5,22.5
			c0,4.143,3.358,7.5,7.5,7.5c4.142,0,7.5-3.357,7.5-7.5c0-18.109-12.905-33.262-30-36.747v-55.006
			c14.671-2.991,26.256-14.576,29.247-29.247h306.506c2.991,14.671,14.576,26.256,29.247,29.247v55.006
			c-14.671,2.991-26.256,14.576-29.247,29.247H126.002c-4.142,0-7.5,3.357-7.5,7.5s3.358,7.5,7.5,7.5H416c4.143,0,7.5-3.357,7.5-7.5
			c0-12.406,10.094-22.5,22.5-22.5c4.143,0,7.5-3.357,7.5-7.5V368C453.5,363.857,450.143,360.5,446,360.5z"/>
	</g>
</g>
<g>
	<g>
		<circle cx="222.41" cy="150.5" r="8.398"/>
	</g>
</g>
<g>
	<g>
		<circle cx="289.6" cy="150.5" r="8.398"/>
	</g>
</g>
<g>
	<g>
		<path d="M271.909,152.625c-2.928-2.929-7.677-2.928-10.606,0c-1.416,1.417-3.3,2.197-5.303,2.197c-2.003,0-3.887-0.78-5.303-2.197
			c-2.929-2.928-7.678-2.929-10.606,0c-2.93,2.929-2.93,7.678-0.001,10.607c4.25,4.25,9.9,6.59,15.91,6.59s11.66-2.341,15.91-6.59
			C274.839,160.303,274.839,155.554,271.909,152.625z"/>
	</g>
</g>
<g>
</g>
<g>
</g>
<g>
</g>
<g>
</g>
<g>
</g>
<g>
</g>
<g>
</g>
<g>
</g>
<g>
</g>
<g>
</g>
<g>
</g>
<g>
</g>
<g>
</g>
<g>
</g>
<g>
</g>
</svg>
