<?xml version="1.0"?>
<svg fill="rgb(242, 159, 5)" xmlns="http://www.w3.org/2000/svg" viewBox="0 0 512 512" width="512" height="512"><g id="Out_line" data-name="Out line"><path d="M383.938,280.99219,411.44238,60.96143A40.0008,40.0008,0,0,0,371.751,16H262.17578a40.186,40.186,0,0,0-37.45312,25.95508l-50.98291,135.9541A46.58738,46.58738,0,0,1,130.31934,208H80a24.0275,24.0275,0,0,0-24,24v48a7.99977,7.99977,0,0,0,8,8H86.67529L58.26221,472.68457A20.23768,20.23768,0,0,0,97.98389,480.313L142.36389,288h30.28748L144.23828,472.68457A20.23768,20.23768,0,0,0,183.96,480.313L228.34,288H259.66l44.38,192.313a20.23763,20.23763,0,0,0,39.72168-7.62793L315.34863,288H323.66l44.38,192.313a20.23763,20.23763,0,0,0,39.72168-7.62793l-28.5199-185.37879A7.99247,7.99247,0,0,0,383.938,280.99219ZM112,224h18.31934a62.66187,62.66187,0,0,0,58.40185-40.47266L239.7041,47.57324A24.111,24.111,0,0,1,262.17578,32H371.751a24.00044,24.00044,0,0,1,23.81494,26.97656h0L382.01514,167.37842a46.46745,46.46745,0,0,1-34.88477,39.25677,62.18829,62.18829,0,0,0,18.76074-37.26947L375.938,88.99219l-15.876-1.98438-10.04687,80.37354A46.44382,46.44382,0,0,1,304,208a24.0275,24.0275,0,0,0-24,24v9.37622A23.88388,23.88388,0,0,0,272,240H112a23.88388,23.88388,0,0,0-8,1.37622V232A8.00917,8.00917,0,0,1,112,224Zm216,48V232a8.00917,8.00917,0,0,1,8-8,62.21866,62.21866,0,0,0,40.84937-15.29358L368.9375,272Zm-14.62891-48A23.8929,23.8929,0,0,0,312,232v40H296V232a8.00917,8.00917,0,0,1,8-8ZM280,272H104v-8a8.00917,8.00917,0,0,1,8-8H272a8.00917,8.00917,0,0,1,8,8ZM72,232a8.00917,8.00917,0,0,1,8-8h9.37109A23.8929,23.8929,0,0,0,88,232v40H72ZM82.394,476.71533a4.23786,4.23786,0,0,1-8.31787-1.59765L102.863,288h23.08081Zm85.97608,0a4.23786,4.23786,0,0,1-8.31787-1.59765L188.83911,288h23.08081Zm159.57812-1.59717a4.23809,4.23809,0,0,1-8.31836,1.59717L276.08008,288h23.08081Zm63.02783,3.40332a4.23824,4.23824,0,0,1-7.34619-1.80615L340.08008,288h23.08081l28.78735,187.11816A4.18912,4.18912,0,0,1,390.97607,478.52148Z"/></g></svg>
