<svg fill="rgb(242, 159, 5)" height="480pt" viewBox="0 -60 480 480" width="480pt" xmlns="http://www.w3.org/2000/svg"><path d="m240 24c-83.949219 0-152 68.050781-152 152s68.050781 152 152 152 152-68.050781 152-152c-.09375-83.910156-68.089844-151.90625-152-152zm0 288c-75.109375 0-136-60.890625-136-136s60.890625-136 136-136 136 60.890625 136 136c-.082031 75.074219-60.925781 135.917969-136 136zm0 0"/><path d="m88 88v-80h-16v72h-8v-72h-16v72h-8v-72h-16v72h-8v-72h-16v120c.0117188 10.167969 6.417969 19.230469 16 22.632812v185.367188c0 13.253906 10.746094 24 24 24h8c13.253906 0 24-10.746094 24-24v-185.367188c9.582031-3.402343 15.988281-12.464843 16-22.632812zm-16 40c0 4.417969-3.582031 8-8 8s-8 3.582031-8 8v192c0 4.417969-3.582031 8-8 8h-8c-4.417969 0-8-3.582031-8-8v-192c0-4.417969-3.582031-8-8-8s-8-3.582031-8-8v-32h56zm0 0"/><path d="m472 0c-39.746094.0429688-71.957031 32.253906-72 72v104c0 13.253906 10.746094 24 24 24v152c0 4.417969 3.582031 8 8 8h40c4.417969 0 8-3.582031 8-8v-344c0-4.417969-3.582031-8-8-8zm-8 344h-24v-152c0-4.417969-3.582031-8-8-8h-8c-4.417969 0-8-3.582031-8-8v-104c.035156-27.824219 20.464844-51.417969 48-55.433594zm0 0"/><path d="m424 48h16v120h-16zm0 0"/><path d="m240 96c-44.183594 0-80 35.816406-80 80s35.816406 80 80 80 80-35.816406 80-80c-.046875-44.164062-35.835938-79.953125-80-80zm0 144c-35.347656 0-64-28.652344-64-64s28.652344-64 64-64 64 28.652344 64 64c-.039062 35.328125-28.671875 63.960938-64 64zm0 0"/></svg>