<?xml version="1.0" encoding="iso-8859-1"?>
<!-- Generator: Adobe Illustrator 19.0.0, SVG Export Plug-In . SVG Version: 6.00 Build 0)  -->
<svg fill="rgb(242, 159, 5)" version="1.1" id="Layer_1" xmlns="http://www.w3.org/2000/svg" xmlns:xlink="http://www.w3.org/1999/xlink" x="0px" y="0px"
	 viewBox="0 0 260.174 260.174" style="enable-background:new 0 0 260.174 260.174;" xml:space="preserve">
<g>
	<g>
		<g>
			<path d="M109.375,33.53c1.612,0,2.912-1.304,2.912-2.912c0-1.612-1.304-2.912-2.912-2.912H91.899
				c-1.612,0-2.912,1.304-2.912,2.912c0,1.612,1.304,2.912,2.912,2.912H109.375z"/>
			<path d="M249.143,8.45c-10.288-9.676-26.34-8.416-26.816-8.376L60.823,2.19c-14.02,0-25.428,11.404-25.428,25.404l-1.536,201.94
				c0,0.004,0.004,0.008,0.004,0.012c0,0.004-0.004,0.008-0.004,0.012c0,0.208,0.08,0.396,0.12,0.592
				c0.036,0.176,0.04,0.364,0.108,0.528c0.084,0.204,0.232,0.364,0.356,0.544c0.092,0.128,0.152,0.276,0.264,0.388
				c0.144,0.144,0.332,0.232,0.5,0.344c0.144,0.096,0.264,0.216,0.424,0.288c0.176,0.076,0.38,0.08,0.568,0.12
				c0.184,0.04,0.356,0.116,0.556,0.116h0.024h73.176c1.612,0,2.916-1.304,2.916-2.916s-1.304-2.916-2.916-2.916h-70.24
				l1.516-199.028c0-10.808,8.792-19.6,19.636-19.6l161.748-2.124c0.14-0.016,14.2-1.072,22.556,6.82
				c3.824,3.612,5.932,8.648,6.272,14.992H131.135c-1.612,0-2.912,1.304-2.912,2.912c0,1.608,1.304,2.912,2.912,2.912h107.268
				v201.204c0,10.812-8.796,19.6-19.6,19.6H62.107l-24.556-0.056c-0.152,0.012-14.124,1.112-22.528-6.796
				c-3.836-3.616-5.948-8.652-6.292-15.008h15.096c1.612,0,2.916-1.304,2.916-2.916s-1.304-2.916-2.916-2.916H5.779
				c-1.58,0-2.872,1.26-2.912,2.844c-0.236,9.436,2.508,16.92,8.164,22.24c8.048,7.572,19.636,8.448,24.492,8.448
				c1.348,0,2.18-0.068,2.272-0.076l23.012,0.064c0.008,0,0.012,0.004,0.02,0.004h1.268h0.008h156.708
				c14.02,0,25.428-11.408,25.428-25.432V33.53h10.156c1.58,0,2.872-1.26,2.912-2.84C257.543,21.254,254.795,13.77,249.143,8.45z"/>
			<path d="M62.659,102.37c-1.612,0-2.916,1.304-2.916,2.912v7.128c0,0.076,0.04,0.14,0.044,0.212c0.016,0.2,0.064,0.384,0.12,0.576
				c0.056,0.192,0.112,0.372,0.2,0.544c0.036,0.068,0.036,0.14,0.076,0.204c0.044,0.072,0.124,0.1,0.172,0.164
				c0.2,0.276,0.44,0.496,0.72,0.684c0.108,0.072,0.192,0.152,0.308,0.208c0.38,0.188,0.796,0.312,1.248,0.316
				c0.012,0,0.02,0.008,0.032,0.008c0.004,0,0.004-0.004,0.008-0.004h83.676l0.008,0.004c0.012,0,0.02-0.008,0.032-0.008
				c0.452-0.008,0.868-0.132,1.248-0.32c0.116-0.056,0.2-0.136,0.308-0.208c0.284-0.188,0.524-0.412,0.724-0.688
				c0.048-0.068,0.128-0.096,0.172-0.168c0.04-0.064,0.044-0.136,0.076-0.204c0.088-0.172,0.144-0.348,0.196-0.536
				c0.056-0.196,0.104-0.38,0.116-0.58c0.008-0.072,0.044-0.132,0.044-0.204V60.634c0-0.076-0.04-0.14-0.044-0.212
				c-0.016-0.196-0.06-0.38-0.116-0.576c-0.056-0.192-0.112-0.372-0.2-0.544c-0.036-0.068-0.036-0.14-0.076-0.204
				c-0.06-0.096-0.152-0.148-0.22-0.236c-0.124-0.16-0.252-0.304-0.408-0.432c-0.14-0.12-0.288-0.212-0.448-0.304
				c-0.164-0.092-0.324-0.168-0.504-0.228c-0.188-0.064-0.372-0.092-0.572-0.116c-0.112-0.016-0.208-0.068-0.324-0.068h-83.7
				c-1.612,0-2.916,1.304-2.916,2.916v24.952c0,1.612,1.304,2.912,2.916,2.912c1.608,0,2.912-1.304,2.912-2.912V66.19l33.24,20.428
				l-33.24,20.564v-1.9C65.571,103.674,64.267,102.37,62.659,102.37z M143.439,107.202l-33.52-20.6l33.52-20.74V107.202z
				 M72.399,63.546h63.704l-31.744,19.64L72.399,63.546z M104.371,90.038l31.676,19.464h-63.14L104.371,90.038z"/>
			<path d="M222.503,57.718h-37.024c-1.612,0-2.912,1.304-2.912,2.912c0,1.612,1.304,2.912,2.912,2.912h37.024
				c1.612,0,2.912-1.304,2.912-2.912C225.415,59.022,224.115,57.718,222.503,57.718z"/>
			<path d="M178.227,63.546c1.608,0,2.912-1.304,2.912-2.912c0-1.612-1.304-2.912-2.912-2.912h-14.256
				c-1.612,0-2.912,1.304-2.912,2.912c-0.004,1.608,1.3,2.912,2.912,2.912H178.227z"/>
			<path d="M222.503,86.994c1.612,0,2.912-1.304,2.912-2.912c0-1.608-1.3-2.912-2.912-2.912h-15.644
				c-1.612,0-2.912,1.304-2.912,2.912c0,1.608,1.304,2.912,2.912,2.912H222.503z"/>
			<path d="M163.971,86.998h32.536c1.612,0,2.912-1.304,2.912-2.912c0-1.608-1.304-2.912-2.912-2.912h-32.536
				c-1.612,0-2.912,1.304-2.912,2.912C161.059,85.694,162.359,86.998,163.971,86.998z"/>
			<path d="M225.419,107.534c0-1.612-1.304-2.912-2.912-2.912h-29.58c-1.612,0-2.912,1.304-2.912,2.912
				c0,1.608,1.304,2.912,2.912,2.912h29.58C224.115,110.446,225.419,109.146,225.419,107.534z"/>
			<path d="M163.971,110.45h15.64c1.612,0,2.912-1.304,2.912-2.912c0-1.612-1.304-2.912-2.912-2.912h-15.64
				c-1.612,0-2.912,1.304-2.912,2.912C161.055,109.146,162.359,110.45,163.971,110.45z"/>
			<path d="M107.555,141.306c0,1.612,1.304,2.912,2.912,2.912h108.384c1.612,0,2.912-1.304,2.912-2.912
				c0-1.612-1.304-2.912-2.912-2.912H110.467C108.855,138.394,107.555,139.694,107.555,141.306z"/>
			<path d="M64.535,144.218h35.876c1.612,0,2.912-1.3,2.912-2.912s-1.304-2.912-2.912-2.912H64.535
				c-1.608,0-2.912,1.304-2.912,2.912C61.623,142.918,62.927,144.218,64.535,144.218z"/>
			<path d="M123.071,158.906H90.535c-1.612,0-2.912,1.304-2.912,2.912c0,1.608,1.304,2.912,2.912,2.912h32.536
				c1.612,0,2.912-1.304,2.912-2.912C125.983,160.21,124.679,158.906,123.071,158.906z"/>
			<path d="M64.535,158.906c-1.612,0-2.912,1.304-2.912,2.912c0,1.608,1.304,2.912,2.912,2.912h15.644
				c1.612,0,2.912-1.304,2.912-2.912c0-1.608-1.304-2.912-2.912-2.912H64.535z"/>
			<path d="M123.071,179.414h-14.256c-1.608,0-2.912,1.304-2.912,2.916s1.304,2.916,2.912,2.916h14.256
				c1.612,0,2.912-1.304,2.912-2.916S124.679,179.414,123.071,179.414z"/>
			<path d="M101.387,182.326c0-1.612-1.304-2.916-2.912-2.916H64.539c-1.612,0-2.916,1.304-2.916,2.916s1.304,2.916,2.916,2.916
				h33.936C100.083,185.242,101.387,183.938,101.387,182.326z"/>
			<path d="M98.447,205.758h24.624c1.612,0,2.912-1.304,2.912-2.916s-1.304-2.916-2.912-2.916H98.447
				c-1.612,0-2.912,1.304-2.912,2.916S96.839,205.758,98.447,205.758z"/>
			<path d="M64.535,199.926c-1.612,0-2.912,1.304-2.912,2.916s1.304,2.916,2.912,2.916h24.584c1.612,0,2.912-1.304,2.912-2.916
				s-1.3-2.916-2.912-2.916H64.535z"/>
			<path d="M219.903,158.906h-39.108c-1.612,0-2.912,1.304-2.912,2.912c0,1.608,1.304,2.912,2.912,2.912h39.108
				c1.612,0,2.912-1.304,2.912-2.912C222.815,160.21,221.511,158.906,219.903,158.906z"/>
			<path d="M157.211,164.73h13.544c1.612,0,2.912-1.304,2.912-2.912c0-1.608-1.304-2.912-2.912-2.912h-13.544
				c-1.612,0-2.912,1.304-2.912,2.912C154.299,163.426,155.599,164.73,157.211,164.73z"/>
			<path d="M219.903,179.414h-14.876c-1.612,0-2.912,1.304-2.912,2.916s1.304,2.916,2.912,2.916h14.876
				c1.612,0,2.912-1.304,2.912-2.916S221.511,179.414,219.903,179.414z"/>
			<path d="M197.623,182.326c0-1.612-1.304-2.916-2.912-2.916h-37.5c-1.612,0-2.912,1.304-2.912,2.916s1.304,2.916,2.912,2.916h37.5
				C196.323,185.242,197.623,183.938,197.623,182.326z"/>
			<path d="M189.983,205.758h29.92c1.612,0,2.912-1.304,2.912-2.916s-1.304-2.916-2.912-2.916h-29.92
				c-1.612,0-2.912,1.304-2.912,2.916S188.371,205.758,189.983,205.758z"/>
			<path d="M157.211,199.926c-1.612,0-2.912,1.304-2.912,2.916s1.304,2.916,2.912,2.916h22.068c1.612,0,2.912-1.304,2.912-2.916
				s-1.304-2.916-2.912-2.916H157.211z"/>
		</g>
	</g>
</g>
<g>
</g>
<g>
</g>
<g>
</g>
<g>
</g>
<g>
</g>
<g>
</g>
<g>
</g>
<g>
</g>
<g>
</g>
<g>
</g>
<g>
</g>
<g>
</g>
<g>
</g>
<g>
</g>
<g>
</g>
</svg>
