<svg fill="rgb(242, 159, 5)" height="512pt" viewBox="0 -56 512 512" width="512pt" xmlns="http://www.w3.org/2000/svg"><path d="m512 210c0-17.859375-9.417969-33.550781-23.539062-42.394531 14.296874-10.976563 23.539062-28.226563 23.539062-47.605469 0-33.085938-26.914062-60-60-60h-41.382812c3.417968-5.886719 5.382812-12.71875 5.382812-20 0-22.054688-17.945312-40-40-40h-240c-22.054688 0-40 17.945312-40 40 0 7.28125 1.964844 14.113281 5.382812 20h-41.382812c-33.085938 0-60 26.914062-60 60 0 19.378906 9.242188 36.628906 23.539062 47.605469-14.121093 8.84375-23.539062 24.535156-23.539062 42.394531 0 16.339844 7.878906 30.871094 20.035156 40-12.15625 9.128906-20.035156 23.660156-20.035156 40 0 14.867188 6.53125 28.234375 16.863281 37.398438-10.191406 7.257812-16.863281 19.164062-16.863281 32.601562 0 22.054688 17.945312 40 40 40h432c22.054688 0 40-17.945312 40-40 0-13.4375-6.671875-25.34375-16.863281-32.601562 10.332031-9.164063 16.863281-22.53125 16.863281-37.398438 0-16.339844-7.878906-30.871094-20.035156-40 12.15625-9.128906 20.035156-23.660156 20.035156-40zm-376-190h240c11.027344 0 20 8.972656 20 20s-8.972656 20-20 20h-240c-11.027344 0-20-8.972656-20-20s8.972656-20 20-20zm-116 100c0-22.054688 17.945312-40 40-40h362c5.515625 0 10 4.484375 10 10s-4.484375 10-10 10h-332c-16.542969 0-30 13.457031-30 30 0 5.523438 4.476562 10 10 10s10-4.476562 10-10c0-5.515625 4.484375-10 10-10h332c16.542969 0 30-13.457031 30-30 0-3.507812-.609375-6.871094-1.71875-10h1.71875c22.054688 0 40 17.945312 40 40s-17.945312 40-40 40h-392c-22.054688 0-40-17.945312-40-40zm0 90c0-16.542969 13.457031-30 30-30h130c16.542969 0 30 13.457031 30 30s-13.457031 30-30 30h-130c-16.542969 0-30-13.457031-30-30zm170 170h-150c-11.027344 0-20-8.972656-20-20s8.972656-20 20-20h150c11.027344 0 20 8.972656 20 20s-8.972656 20-20 20zm-10-60h-130c-16.542969 0-30-13.457031-30-30s13.457031-30 30-30h130c16.542969 0 30 13.457031 30 30s-13.457031 30-30 30zm292 60h-247.382812c3.417968-5.886719 5.382812-12.71875 5.382812-20s-1.964844-14.113281-5.382812-20h247.382812c11.027344 0 20 8.972656 20 20s-8.972656 20-20 20zm20-90c0 16.542969-13.457031 30-30 30h-242.027344c4.378906-5.816406 7.515625-12.613281 9.019532-20h21.007812c5.511719 0 10-4.488281 10-10s-4.488281-10-10-10h-21.007812c-1.503907-7.386719-4.640626-14.183594-9.019532-20h242.027344c16.542969 0 30 13.457031 30 30zm-30-50h-242.027344c4.378906-5.816406 7.515625-12.613281 9.019532-20h21.007812c5.511719 0 10-4.488281 10-10s-4.488281-10-10-10h-21.007812c-1.503907-7.386719-4.640626-14.183594-9.019532-20h242.027344c16.542969 0 30 13.457031 30 30s-13.457031 30-30 30zm0 0"/><path d="m290 200c-5.511719 0-10 4.488281-10 10s4.488281 10 10 10 10-4.488281 10-10-4.488281-10-10-10zm0 0"/><path d="m400 200c-5.519531 0-10 4.488281-10 10s4.480469 10 10 10c5.511719 0 10-4.488281 10-10s-4.488281-10-10-10zm0 0"/><path d="m360 200h-30c-5.511719 0-10 4.488281-10 10s4.488281 10 10 10h30c5.511719 0 10-4.488281 10-10s-4.488281-10-10-10zm0 0"/><path d="m462 200h-22c-5.511719 0-10 4.488281-10 10s4.488281 10 10 10h22c5.511719 0 10-4.488281 10-10s-4.488281-10-10-10zm0 0"/><path d="m440 300h22c5.511719 0 10-4.488281 10-10s-4.488281-10-10-10h-22c-5.519531 0-10 4.488281-10 10s4.480469 10 10 10zm0 0"/><path d="m400 300c5.511719 0 10-4.488281 10-10s-4.488281-10-10-10-10 4.488281-10 10 4.488281 10 10 10zm0 0"/><path d="m330 300h30c5.511719 0 10-4.488281 10-10s-4.488281-10-10-10h-30c-5.511719 0-10 4.488281-10 10s4.488281 10 10 10zm0 0"/><path d="m290 300c5.511719 0 10-4.488281 10-10s-4.488281-10-10-10-10 4.488281-10 10 4.488281 10 10 10zm0 0"/></svg>