<svg fill="rgb(242, 159, 5)" height="480pt" viewBox="0 -72 480 480" width="480pt" xmlns="http://www.w3.org/2000/svg"><path d="m344 96v-4.390625c64.871094-5.351563 136-17.210937 136-43.609375 0-47.457031-230.199219-48-240-48s-240 .542969-240 48c0 26.398438 71.128906 38.257812 136 43.609375v4.390625c0 13.253906 10.746094 24 24 24h26.640625l-2.640625 32c.011719 18.300781 8.976562 35.4375 24 45.886719v12.191406c-28.589844 8.515625-58.179688 13.195313-88 13.921875-4.417969 0-8 3.582031-8 8v32c0 4.417969 3.582031 8 8 8h14.289062c-14.871093 5.25-30.519531 7.953125-46.289062 8h-32c-4.417969 0-8 3.582031-8 8v40c0 4.417969 3.582031 8 8 8h32c44.828125-.339844 88.015625-16.882812 121.601562-46.574219 4.0625 13.398438 16.417969 22.566407 30.421876 22.566407 14.003906 0 26.359374-9.167969 30.425781-22.566407 33.570312 29.679688 76.742187 46.222657 121.550781 46.574219h32c4.417969 0 8-3.582031 8-8v-40c0-4.417969-3.582031-8-8-8h-32c-15.769531-.046875-31.417969-2.75-46.289062-8h14.289062c4.417969 0 8-3.582031 8-8v-32c0-4.417969-3.582031-8-8-8-29.820312-.726562-59.410156-5.40625-88-13.921875v-12.230469c15.121094-10.648437 24.085938-28.015625 24-46.511718l-2.625-31.335938h26.625c13.253906 0 24-10.746094 24-24zm-328-47.808594c3.617188-11.550781 81.601562-32.191406 224-32.191406 141.601562 0 219.488281 20.40625 223.953125 32-4.464844 11.59375-82.351563 32-223.953125 32-142.398438 0-220.382812-20.640625-224-31.808594zm144 55.808594c-4.417969 0-8-3.582031-8-8v-3.199219c12.992188.886719 25.457031 1.535157 36.710938 2l-.757813 9.199219zm-32 152v-16.144531c24.765625-1.144531 49.335938-4.929688 73.296875-11.289063-10.140625 10.449219-21.484375 19.65625-33.792969 27.433594zm-40 64h-24v-24h24c45.136719-.921875 88.15625-19.320312 120-51.320312v24.191406c-31.769531 32.085937-74.851562 50.441406-120 51.128906zm328-24v24h-24c-45.136719-.765625-88.1875-19.117188-120-51.144531v-24.175781c31.84375 32 74.863281 50.398437 120 51.320312zm-64-40h-39.503906c-12.308594-7.777344-23.652344-16.984375-33.792969-27.433594 23.960937 6.359375 48.53125 10.144532 73.296875 11.289063zm-96 24c0 8.835938-7.164062 16-16 16s-16-7.164062-16-16v-74.398438c10.433594 3.144532 21.566406 3.144532 32 0zm-16-88c-21.847656.03125-39.667969-17.492188-40-39.335938l4.742188-57.289062c19.503906.625 33.042968.625 35.257812.625s15.753906 0 35.289062-.625l4.710938 56.625c-.027344 22.082031-17.917969 39.972656-40 40zm51.289062-97.191406c11.253907-.464844 23.71875-1.113282 36.710938-2v3.191406c0 4.417969-3.582031 8-8 8h-27.945312zm0 0"/><path d="m216 144h16v16h-16zm0 0"/><path d="m216 112h16v24h-16zm0 0"/></svg>