<?xml version="1.0" encoding="iso-8859-1"?>
<!-- Generator: Adobe Illustrator 18.0.0, SVG Export Plug-In . SVG Version: 6.00 Build 0)  -->
<!DOCTYPE svg PUBLIC "-//W3C//DTD SVG 1.1//EN" "http://www.w3.org/Graphics/SVG/1.1/DTD/svg11.dtd">
<svg fill="rgb(242, 159, 5)" version="1.1" id="Capa_1" xmlns="http://www.w3.org/2000/svg" xmlns:xlink="http://www.w3.org/1999/xlink" x="0px" y="0px"
	 viewBox="0 0 475.877 475.877" style="enable-background:new 0 0 475.877 475.877;" xml:space="preserve">
<path d="M471.877,381.07h-4.949v-11.694c0-2.209-1.791-4-4-4h-22.526V231.934h3.847c2.209,0,4-1.791,4-4c0-2.209-1.791-4-4-4h-3.847
	v-4.556h6.626c2.209,0,4-1.791,4-4l0.003-14.855L466.636,165c0.466-1.061,0.449-2.273-0.047-3.321
	c-0.496-1.048-1.423-1.828-2.54-2.14l-207.887-57.993V80.018c0-2.209-1.791-4-4-4s-4,1.791-4,4v19.297l-6.223-1.735V75.114
	c0-2.209-1.791-4-4-4s-4,1.791-4,4V97.58l-6.223,1.735V80.018c0-2.209-1.791-4-4-4c-2.209,0-4,1.791-4,4v21.529L11.828,159.54
	c-1.117,0.311-2.044,1.092-2.54,2.14c-0.497,1.048-0.514,2.26-0.047,3.321l15.604,35.523l0.003,14.855c0,2.209,1.791,4,4,4h5.645
	v4.556h-2.866c-2.209,0-4,1.791-4,4c0,2.209,1.791,4,4,4h2.866v133.441H12.948c-2.209,0-4,1.791-4,4v11.694H4c-2.209,0-4,1.791-4,4
	v15.693c0,2.209,1.791,4,4,4h467.877c2.209,0,4-1.791,4-4V385.07C475.877,382.861,474.086,381.07,471.877,381.07z M432.402,365.375
	h-10.637V231.934h10.637V365.375z M64.978,223.934H61.13v-4.556h27.545v4.556H85.81c-2.209,0-4,1.791-4,4c0,2.209,1.791,4,4,4h2.866
	v133.441H61.13V231.934h3.847c2.209,0,4-1.791,4-4C68.978,225.725,67.187,223.934,64.978,223.934z M107.312,219.378v4.556H96.675
	v-4.556H107.312z M96.675,231.934h10.637v133.441H96.675V231.934z M115.312,231.934h3.847c2.209,0,4-1.791,4-4c0-2.209-1.791-4-4-4
	h-3.847v-4.556h27.545v4.556h-2.866c-2.209,0-4,1.791-4,4c0,2.209,1.791,4,4,4h2.866v133.441h-27.545V231.934z M161.494,219.378
	v4.556h-10.637v-4.556H161.494z M150.857,231.934h10.637v133.441h-10.637V231.934z M169.494,231.934h3.847c2.209,0,4-1.791,4-4
	c0-2.209-1.791-4-4-4h-3.847v-4.556h27.545v4.556h-2.866c-2.209,0-4,1.791-4,4c0,2.209,1.791,4,4,4h2.866v133.441h-27.545V231.934z
	 M215.675,219.378v4.556h-10.637v-4.556H215.675z M205.039,231.934h10.637v133.441h-10.637V231.934z M223.675,231.934h3.847
	c2.209,0,4-1.791,4-4c0-2.209-1.791-4-4-4h-3.847v-4.556h27.545v4.556h-2.866c-2.209,0-4,1.791-4,4c0,2.209,1.791,4,4,4h2.866
	v133.441h-27.545V231.934z M269.857,219.378v4.556H259.22v-4.556H269.857z M259.22,231.934h10.637v133.441H259.22V231.934z
	 M277.857,231.934h3.847c2.209,0,4-1.791,4-4c0-2.209-1.791-4-4-4h-3.847v-4.556h27.545v4.556h-2.866c-2.209,0-4,1.791-4,4
	c0,2.209,1.791,4,4,4h2.866v133.441h-27.545V231.934z M324.039,219.378v4.556h-10.637v-4.556H324.039z M313.402,231.934h10.637
	v133.441h-10.637V231.934z M332.039,231.934h3.847c2.209,0,4-1.791,4-4c0-2.209-1.791-4-4-4h-3.847v-4.556h27.545v4.556h-2.866
	c-2.209,0-4,1.791-4,4c0,2.209,1.791,4,4,4h2.866v133.441h-27.545V231.934z M378.22,219.378v4.556h-10.637v-4.556H378.22z
	 M367.583,231.934h10.637v133.441h-10.637V231.934z M386.22,231.934h3.847c2.209,0,4-1.791,4-4c0-2.209-1.791-4-4-4h-3.847v-4.556
	h27.545v4.556h-2.866c-2.209,0-4,1.791-4,4c0,2.209,1.791,4,4,4h2.866v133.441H386.22V231.934z M432.402,223.934h-10.637v-4.556
	h10.637V223.934z M443.031,171.973v23.711H32.845v-23.711H443.031z M105.838,163.973l132.101-36.851l132.1,36.851H105.838z
	 M18.42,166.005l219.519-61.237l219.518,61.237l-6.425,14.627v-12.659c0-2.209-1.791-4-4-4h-47.222l-160.796-44.855
	c-0.703-0.197-1.446-0.197-2.149,0L76.068,163.973H28.845c-2.209,0-4,1.791-4,4v12.659L18.42,166.005z M32.849,203.684h410.179
	v7.694H32.849V203.684z M42.494,219.378H53.13v4.556H42.494V219.378z M42.494,231.934H53.13v133.441H42.494V231.934z
	 M16.948,373.375h441.98v7.694H16.948V373.375z M467.877,396.763H8v-7.693h459.877V396.763z"/>
<g>
</g>
<g>
</g>
<g>
</g>
<g>
</g>
<g>
</g>
<g>
</g>
<g>
</g>
<g>
</g>
<g>
</g>
<g>
</g>
<g>
</g>
<g>
</g>
<g>
</g>
<g>
</g>
<g>
</g>
</svg>
